P2
# CREATOR: GIMP PNM Filter Version 1.1
16 16
255
222 222 222 222 222 222 222 222 222 222 222 222 222 222 222 222
222 222 222 222 222 222 222 222 222 222 222 222 222 222 222 222
222 222 222 222 222 222 0 0 0 0 222 222 222 222 222 222
222 222 222 222 222 222 0 0 0 0 222 222 222 222 222 222
222 222 222 222 0 0 222 222 222 222 0 0 222 222 222 222
222 222 222 222 0 0 222 222 222 222 0 0 222 222 222 222
222 222 0 0 222 222 222 222 222 222 222 222 0 0 222 222
222 222 0 0 222 222 222 222 222 222 222 222 0 0 222 222
222 222 0 0 0 0 0 0 0 0 0 0 0 0 222 222
222 222 0 0 0 0 0 0 0 0 0 0 0 0 222 222
222 222 0 0 222 222 222 222 222 222 222 222 0 0 222 222
222 222 0 0 222 222 222 222 222 222 222 222 0 0 222 222
222 222 0 0 222 222 222 222 222 222 222 222 0 0 222 222
222 222 0 0 222 222 222 222 222 222 222 222 0 0 222 222
222 222 222 222 222 222 222 222 222 222 222 222 222 222 222 222
222 222 222 222 222 222 222 222 222 222 222 222 222 222 222 222
